PathFileType	4	(X/Y/Z)	/tmp/tmphz8i29mk/org-f5e79b5e/32898/baseball-pitching/20220928/session_662820_hawkeye/trc/001_10A17836-7AA3-4221-8461-2F40718F5DA8.trc
DataRate	CameraRate	NumFrames	NumMarkers	Units	OrigDataRate	OrigDataStartFrame	OrigNumFrames
303.03030303030306	303.03030303030306	5	13	mm	303.03030303030306	1	908
Frame#	Time	LSJC			RSJC			LEJC			REJC			LWJC			RWJC			LHJC			RHJC			LKJC			RKJC			LAJC			RAJC			NECK		
		X1	Y1	Z1	X2	Y2	Z2	X3	Y3	Z3	X4	Y4	Z4	X5	Y5	Z5	X6	Y6	Z6	X7	Y7	Z7	X8	Y8	Z8	X9	Y9	Z9	X10	Y10	Z10	X11	Y11	Z11	X12	Y12	Z12	X13	Y13	Z13

1	0.0	-240.54036480731068	262.7466968836423	1834.54517873502	-208.6270392284355	-152.19510839256142	1813.7686666851564	-202.2948737570553	285.62286519900937	1541.5202399739371	-231.34689007616788	-192.41829749382686	1514.2024460051055	-89.77197174789853	165.2620460635852	1259.2513236840975	-114.9112967769452	-86.85250606301763	1234.1886050236485	-346.4278599044952	135.28607340388635	1313.798937234707	-268.6133031961544	-88.64639799744364	1316.6299682387298	-343.4833794405721	104.25087507712054	871.8695879223047	-160.88311461049602	-74.22248826937759	889.2443968074784	-383.30886884319995	82.92352564700072	427.1027602957084	-95.72090976273861	-82.92352564700066	448.02941050931076	-180.70634269573813	59.63484452022175	1834.6730070003807
2	0.0033	-239.63062690373397	263.08770409461016	1834.8595832142312	-209.26734123997508	-152.02515365860174	1813.9297117427616	-201.1463453044513	285.670654595096	1541.891696841469	-231.8322860056672	-192.02201573656885	1514.3406262027524	-90.23009767461242	165.4074440927406	1259.2298656822309	-115.93977698431657	-87.27005803389862	1233.9661048079734	-346.56838112305684	135.90327378266164	1314.0022036514315	-269.3588135623893	-88.2371649669595	1316.9371506330249	-343.69203330312337	104.37470150106539	872.10995793008	-162.05870205860447	-74.16067962871828	889.4383155258749	-383.3230465237074	82.80554096757325	427.28291732768605	-96.77272676091289	-83.00346800222951	448.1735484459699	-180.6728723555201	59.74076500986475	1834.802404031869
3	0.0066	-238.38075922433057	263.46646752321055	1835.207444653237	-209.92562895408017	-151.86883023682594	1814.116009926428	-199.82994865025938	285.79673195180663	1542.278000116609	-232.30240275947833	-191.68441124078433	1514.5123501999751	-90.79719464449501	165.43831309966015	1259.2219691917157	-116.91328536049231	-87.74238957835922	1233.7993975751508	-346.68494376552485	136.49401668797879	1314.1625728182264	-270.08572522133704	-87.85415347885024	1317.2156814868222	-343.90887517315485	104.50536021115241	872.3059900788384	-163.17956568984295	-74.0800282045724	889.6148526505756	-383.25412158086357	82.74410034383929	427.3991390239058	-97.86437646403553	-83.09033854139446	448.2894433147208	-180.5769926209686	59.83123404416592	1834.8793997746309
4	0.009899999999999999	-236.86267671143608	263.8668093230064	1835.574125643324	-210.59566307817042	-151.72635152513675	1814.3109447368304	-198.38923411921033	285.9944077202491	1542.668704898205	-232.75527605821813	-191.40566583693197	1514.7004791314926	-91.44472616972385	165.40249128940007	1259.2284443484405	-117.84341399731754	-88.2667910659421	1233.6695924578842	-346.7917533870133	137.05728706892617	1314.275334484732	-270.80990701555527	-87.49890714278399	1317.4586346385504	-344.1450053783561	104.63970108121977	872.4530353531271	-164.2581095504079	-73.99167763696319	889.7676645597556	-383.1242680057084	82.73157169884671	427.4504779486176	-98.98279265103906	-83.19846608672653	448.3753453331424	-180.4393535381857	59.90713212632257	1834.89980183744
5	0.0132	-235.14335414494292	264.27368209788057	1835.946789565785	-211.2715950264153	-151.59793279980764	1814.500502831954	-196.8644377468528	286.2553361626978	1543.0549282289778	-233.18944719316113	-191.1845214563256	1514.8903422247859	-92.14507649796693	165.3400923218142	1259.2507428778642	-118.74053320236406	-88.83915233986347	1233.5606662858388	-346.8989498540909	137.59278300342967	1314.3376904463203	-271.5454411207278	-87.1730015771563	1317.6610500672596	-344.40859260101894	104.77469668544701	872.5484080853764	-165.30612449882165	-73.90534965186366	889.8921064274844	-382.9538516555109	82.76030046336584	427.43790949508644	-100.11591409433754	-83.33962205573597	448.4308251405456	-180.27838000530744	59.969272976989345	1834.8616782131144
